<mxfile host="app.diagrams.net" modified="2021-05-22T15:40:55.927Z" agent="5.0 (Macintosh; Intel Mac OS X 10_15_7) AppleWebKit/537.36 (KHTML, like Gecko) Chrome/90.0.4430.212 Safari/537.36" etag="Q1NqKjPh4d8anKzUzFYd" version="14.4.9" type="github">
  <diagram id="GqERXbwv3GOE-dYxU53R" name="第 1 页">
    <mxGraphModel dx="2253" dy="658" grid="1" gridSize="10" guides="1" tooltips="1" connect="1" arrows="1" fold="1" page="1" pageScale="1" pageWidth="827" pageHeight="1169" math="0" shadow="0">
      <root>
        <mxCell id="0" />
        <mxCell id="1" parent="0" />
        <mxCell id="m4PSTnk_5FGhUhusHhhS-91" value="" style="rounded=0;whiteSpace=wrap;html=1;" vertex="1" parent="1">
          <mxGeometry x="-80" y="550" width="130" height="180" as="geometry" />
        </mxCell>
        <mxCell id="m4PSTnk_5FGhUhusHhhS-1" value="前端页面" style="rounded=0;whiteSpace=wrap;html=1;" vertex="1" parent="1">
          <mxGeometry x="206" y="60" width="654" height="50" as="geometry" />
        </mxCell>
        <mxCell id="m4PSTnk_5FGhUhusHhhS-3" value="" style="rounded=0;whiteSpace=wrap;html=1;" vertex="1" parent="1">
          <mxGeometry x="206" y="190" width="414" height="185" as="geometry" />
        </mxCell>
        <mxCell id="m4PSTnk_5FGhUhusHhhS-4" value="&lt;br&gt;&lt;br&gt;&lt;br&gt;&lt;br&gt;" style="rounded=0;whiteSpace=wrap;html=1;" vertex="1" parent="1">
          <mxGeometry x="240" y="230" width="60" height="110" as="geometry" />
        </mxCell>
        <mxCell id="m4PSTnk_5FGhUhusHhhS-5" value="" style="endArrow=none;html=1;exitX=0;exitY=0.5;exitDx=0;exitDy=0;entryX=1;entryY=0.5;entryDx=0;entryDy=0;" edge="1" parent="1" source="m4PSTnk_5FGhUhusHhhS-4" target="m4PSTnk_5FGhUhusHhhS-4">
          <mxGeometry width="50" height="50" relative="1" as="geometry">
            <mxPoint x="390" y="360" as="sourcePoint" />
            <mxPoint x="440" y="310" as="targetPoint" />
          </mxGeometry>
        </mxCell>
        <mxCell id="m4PSTnk_5FGhUhusHhhS-6" value="Manager" style="text;html=1;align=center;verticalAlign=middle;resizable=0;points=[];autosize=1;" vertex="1" parent="1">
          <mxGeometry x="240" y="250" width="60" height="20" as="geometry" />
        </mxCell>
        <mxCell id="m4PSTnk_5FGhUhusHhhS-7" value="Agent" style="text;html=1;align=center;verticalAlign=middle;resizable=0;points=[];autosize=1;" vertex="1" parent="1">
          <mxGeometry x="245" y="300" width="50" height="20" as="geometry" />
        </mxCell>
        <mxCell id="m4PSTnk_5FGhUhusHhhS-20" value="&lt;br&gt;&lt;br&gt;&lt;br&gt;&lt;br&gt;" style="rounded=0;whiteSpace=wrap;html=1;" vertex="1" parent="1">
          <mxGeometry x="384" y="230" width="60" height="110" as="geometry" />
        </mxCell>
        <mxCell id="m4PSTnk_5FGhUhusHhhS-21" value="" style="endArrow=none;html=1;exitX=0;exitY=0.5;exitDx=0;exitDy=0;entryX=1;entryY=0.5;entryDx=0;entryDy=0;" edge="1" parent="1" source="m4PSTnk_5FGhUhusHhhS-20" target="m4PSTnk_5FGhUhusHhhS-20">
          <mxGeometry width="50" height="50" relative="1" as="geometry">
            <mxPoint x="534" y="360" as="sourcePoint" />
            <mxPoint x="584" y="310" as="targetPoint" />
          </mxGeometry>
        </mxCell>
        <mxCell id="m4PSTnk_5FGhUhusHhhS-22" value="Manager" style="text;html=1;align=center;verticalAlign=middle;resizable=0;points=[];autosize=1;" vertex="1" parent="1">
          <mxGeometry x="384" y="250" width="60" height="20" as="geometry" />
        </mxCell>
        <mxCell id="m4PSTnk_5FGhUhusHhhS-23" value="Agent" style="text;html=1;align=center;verticalAlign=middle;resizable=0;points=[];autosize=1;" vertex="1" parent="1">
          <mxGeometry x="389" y="300" width="50" height="20" as="geometry" />
        </mxCell>
        <mxCell id="m4PSTnk_5FGhUhusHhhS-24" value="&lt;br&gt;&lt;br&gt;&lt;br&gt;&lt;br&gt;" style="rounded=0;whiteSpace=wrap;html=1;" vertex="1" parent="1">
          <mxGeometry x="530" y="230" width="60" height="110" as="geometry" />
        </mxCell>
        <mxCell id="m4PSTnk_5FGhUhusHhhS-25" value="" style="endArrow=none;html=1;exitX=0;exitY=0.5;exitDx=0;exitDy=0;entryX=1;entryY=0.5;entryDx=0;entryDy=0;" edge="1" parent="1" source="m4PSTnk_5FGhUhusHhhS-24" target="m4PSTnk_5FGhUhusHhhS-24">
          <mxGeometry width="50" height="50" relative="1" as="geometry">
            <mxPoint x="680" y="360" as="sourcePoint" />
            <mxPoint x="730" y="310" as="targetPoint" />
          </mxGeometry>
        </mxCell>
        <mxCell id="m4PSTnk_5FGhUhusHhhS-26" value="Manager" style="text;html=1;align=center;verticalAlign=middle;resizable=0;points=[];autosize=1;" vertex="1" parent="1">
          <mxGeometry x="530" y="250" width="60" height="20" as="geometry" />
        </mxCell>
        <mxCell id="m4PSTnk_5FGhUhusHhhS-27" value="Agent" style="text;html=1;align=center;verticalAlign=middle;resizable=0;points=[];autosize=1;" vertex="1" parent="1">
          <mxGeometry x="535" y="300" width="50" height="20" as="geometry" />
        </mxCell>
        <mxCell id="m4PSTnk_5FGhUhusHhhS-29" value="" style="rounded=0;whiteSpace=wrap;html=1;" vertex="1" parent="1">
          <mxGeometry x="690" y="190" width="170" height="180" as="geometry" />
        </mxCell>
        <mxCell id="m4PSTnk_5FGhUhusHhhS-30" value="MySQL" style="shape=datastore;whiteSpace=wrap;html=1;" vertex="1" parent="1">
          <mxGeometry x="745" y="210" width="60" height="60" as="geometry" />
        </mxCell>
        <mxCell id="m4PSTnk_5FGhUhusHhhS-31" value="Redis" style="shape=datastore;whiteSpace=wrap;html=1;" vertex="1" parent="1">
          <mxGeometry x="745" y="300" width="60" height="60" as="geometry" />
        </mxCell>
        <mxCell id="m4PSTnk_5FGhUhusHhhS-32" value="" style="shape=flexArrow;endArrow=classic;startArrow=classic;html=1;exitX=1;exitY=0.5;exitDx=0;exitDy=0;entryX=0;entryY=0.5;entryDx=0;entryDy=0;" edge="1" parent="1" source="m4PSTnk_5FGhUhusHhhS-3" target="m4PSTnk_5FGhUhusHhhS-29">
          <mxGeometry width="50" height="50" relative="1" as="geometry">
            <mxPoint x="390" y="340" as="sourcePoint" />
            <mxPoint x="680" y="280" as="targetPoint" />
          </mxGeometry>
        </mxCell>
        <mxCell id="m4PSTnk_5FGhUhusHhhS-33" value="" style="rounded=0;whiteSpace=wrap;html=1;" vertex="1" parent="1">
          <mxGeometry x="206" y="487" width="664" height="213" as="geometry" />
        </mxCell>
        <mxCell id="m4PSTnk_5FGhUhusHhhS-52" value="" style="shape=flexArrow;endArrow=classic;startArrow=classic;html=1;exitX=0.25;exitY=0;exitDx=0;exitDy=0;" edge="1" parent="1" source="m4PSTnk_5FGhUhusHhhS-33">
          <mxGeometry width="50" height="50" relative="1" as="geometry">
            <mxPoint x="390" y="400" as="sourcePoint" />
            <mxPoint x="372" y="378" as="targetPoint" />
          </mxGeometry>
        </mxCell>
        <mxCell id="m4PSTnk_5FGhUhusHhhS-53" value="GRPC Stream" style="text;html=1;align=center;verticalAlign=middle;resizable=0;points=[];autosize=1;" vertex="1" parent="1">
          <mxGeometry x="280" y="430" width="90" height="20" as="geometry" />
        </mxCell>
        <mxCell id="m4PSTnk_5FGhUhusHhhS-64" style="edgeStyle=orthogonalEdgeStyle;rounded=0;orthogonalLoop=1;jettySize=auto;html=1;exitX=0.5;exitY=0;exitDx=0;exitDy=0;entryX=0.5;entryY=1;entryDx=0;entryDy=0;" edge="1" parent="1" source="m4PSTnk_5FGhUhusHhhS-58" target="m4PSTnk_5FGhUhusHhhS-62">
          <mxGeometry relative="1" as="geometry" />
        </mxCell>
        <mxCell id="m4PSTnk_5FGhUhusHhhS-58" value="WAF" style="rounded=0;whiteSpace=wrap;html=1;" vertex="1" parent="1">
          <mxGeometry x="-60" y="680" width="90" height="30" as="geometry" />
        </mxCell>
        <mxCell id="m4PSTnk_5FGhUhusHhhS-63" style="edgeStyle=orthogonalEdgeStyle;rounded=0;orthogonalLoop=1;jettySize=auto;html=1;exitX=0.5;exitY=1;exitDx=0;exitDy=0;entryX=0.5;entryY=0;entryDx=0;entryDy=0;" edge="1" parent="1" source="m4PSTnk_5FGhUhusHhhS-61" target="m4PSTnk_5FGhUhusHhhS-62">
          <mxGeometry relative="1" as="geometry" />
        </mxCell>
        <mxCell id="m4PSTnk_5FGhUhusHhhS-61" value="Agent" style="rounded=0;whiteSpace=wrap;html=1;" vertex="1" parent="1">
          <mxGeometry x="-60" y="577" width="90" height="30" as="geometry" />
        </mxCell>
        <mxCell id="m4PSTnk_5FGhUhusHhhS-62" value="Redis" style="rounded=0;whiteSpace=wrap;html=1;" vertex="1" parent="1">
          <mxGeometry x="-60" y="627" width="90" height="30" as="geometry" />
        </mxCell>
        <mxCell id="m4PSTnk_5FGhUhusHhhS-90" value="&lt;font style=&quot;font-size: 24px&quot;&gt;......&lt;/font&gt;" style="text;html=1;align=center;verticalAlign=middle;resizable=0;points=[];autosize=1;" vertex="1" parent="1">
          <mxGeometry x="740" y="563.5" width="60" height="20" as="geometry" />
        </mxCell>
        <mxCell id="m4PSTnk_5FGhUhusHhhS-92" value="&lt;font style=&quot;font-size: 14px&quot;&gt;&lt;b&gt;WAF1&lt;/b&gt;&lt;/font&gt;" style="text;html=1;align=center;verticalAlign=middle;resizable=0;points=[];autosize=1;" vertex="1" parent="1">
          <mxGeometry x="-80" y="557" width="50" height="20" as="geometry" />
        </mxCell>
        <mxCell id="m4PSTnk_5FGhUhusHhhS-93" value="" style="rounded=0;whiteSpace=wrap;html=1;" vertex="1" parent="1">
          <mxGeometry x="220" y="495" width="130" height="180" as="geometry" />
        </mxCell>
        <mxCell id="m4PSTnk_5FGhUhusHhhS-94" style="edgeStyle=orthogonalEdgeStyle;rounded=0;orthogonalLoop=1;jettySize=auto;html=1;exitX=0.5;exitY=0;exitDx=0;exitDy=0;entryX=0.5;entryY=1;entryDx=0;entryDy=0;" edge="1" parent="1" source="m4PSTnk_5FGhUhusHhhS-95" target="m4PSTnk_5FGhUhusHhhS-98">
          <mxGeometry relative="1" as="geometry" />
        </mxCell>
        <mxCell id="m4PSTnk_5FGhUhusHhhS-95" value="WAF" style="rounded=0;whiteSpace=wrap;html=1;" vertex="1" parent="1">
          <mxGeometry x="240" y="625" width="90" height="30" as="geometry" />
        </mxCell>
        <mxCell id="m4PSTnk_5FGhUhusHhhS-96" style="edgeStyle=orthogonalEdgeStyle;rounded=0;orthogonalLoop=1;jettySize=auto;html=1;exitX=0.5;exitY=1;exitDx=0;exitDy=0;entryX=0.5;entryY=0;entryDx=0;entryDy=0;" edge="1" parent="1" source="m4PSTnk_5FGhUhusHhhS-97" target="m4PSTnk_5FGhUhusHhhS-98">
          <mxGeometry relative="1" as="geometry" />
        </mxCell>
        <mxCell id="m4PSTnk_5FGhUhusHhhS-97" value="Agent" style="rounded=0;whiteSpace=wrap;html=1;" vertex="1" parent="1">
          <mxGeometry x="240" y="522" width="90" height="30" as="geometry" />
        </mxCell>
        <mxCell id="m4PSTnk_5FGhUhusHhhS-98" value="Redis" style="rounded=0;whiteSpace=wrap;html=1;" vertex="1" parent="1">
          <mxGeometry x="240" y="572" width="90" height="30" as="geometry" />
        </mxCell>
        <mxCell id="m4PSTnk_5FGhUhusHhhS-99" value="&lt;font style=&quot;font-size: 14px&quot;&gt;&lt;b&gt;WAF1&lt;/b&gt;&lt;/font&gt;" style="text;html=1;align=center;verticalAlign=middle;resizable=0;points=[];autosize=1;" vertex="1" parent="1">
          <mxGeometry x="220" y="502" width="50" height="20" as="geometry" />
        </mxCell>
        <mxCell id="m4PSTnk_5FGhUhusHhhS-100" value="" style="rounded=0;whiteSpace=wrap;html=1;" vertex="1" parent="1">
          <mxGeometry x="400" y="497" width="130" height="180" as="geometry" />
        </mxCell>
        <mxCell id="m4PSTnk_5FGhUhusHhhS-101" style="edgeStyle=orthogonalEdgeStyle;rounded=0;orthogonalLoop=1;jettySize=auto;html=1;exitX=0.5;exitY=0;exitDx=0;exitDy=0;entryX=0.5;entryY=1;entryDx=0;entryDy=0;" edge="1" parent="1" source="m4PSTnk_5FGhUhusHhhS-102" target="m4PSTnk_5FGhUhusHhhS-105">
          <mxGeometry relative="1" as="geometry" />
        </mxCell>
        <mxCell id="m4PSTnk_5FGhUhusHhhS-102" value="WAF" style="rounded=0;whiteSpace=wrap;html=1;" vertex="1" parent="1">
          <mxGeometry x="420" y="627" width="90" height="30" as="geometry" />
        </mxCell>
        <mxCell id="m4PSTnk_5FGhUhusHhhS-103" style="edgeStyle=orthogonalEdgeStyle;rounded=0;orthogonalLoop=1;jettySize=auto;html=1;exitX=0.5;exitY=1;exitDx=0;exitDy=0;entryX=0.5;entryY=0;entryDx=0;entryDy=0;" edge="1" parent="1" source="m4PSTnk_5FGhUhusHhhS-104" target="m4PSTnk_5FGhUhusHhhS-105">
          <mxGeometry relative="1" as="geometry" />
        </mxCell>
        <mxCell id="m4PSTnk_5FGhUhusHhhS-104" value="Agent" style="rounded=0;whiteSpace=wrap;html=1;" vertex="1" parent="1">
          <mxGeometry x="420" y="524" width="90" height="30" as="geometry" />
        </mxCell>
        <mxCell id="m4PSTnk_5FGhUhusHhhS-105" value="Redis" style="rounded=0;whiteSpace=wrap;html=1;" vertex="1" parent="1">
          <mxGeometry x="420" y="574" width="90" height="30" as="geometry" />
        </mxCell>
        <mxCell id="m4PSTnk_5FGhUhusHhhS-106" value="&lt;font style=&quot;font-size: 14px&quot;&gt;&lt;b&gt;WAF2&lt;/b&gt;&lt;/font&gt;" style="text;html=1;align=center;verticalAlign=middle;resizable=0;points=[];autosize=1;" vertex="1" parent="1">
          <mxGeometry x="400" y="504" width="50" height="20" as="geometry" />
        </mxCell>
        <mxCell id="m4PSTnk_5FGhUhusHhhS-107" value="" style="rounded=0;whiteSpace=wrap;html=1;" vertex="1" parent="1">
          <mxGeometry x="580" y="497" width="130" height="180" as="geometry" />
        </mxCell>
        <mxCell id="m4PSTnk_5FGhUhusHhhS-108" style="edgeStyle=orthogonalEdgeStyle;rounded=0;orthogonalLoop=1;jettySize=auto;html=1;exitX=0.5;exitY=0;exitDx=0;exitDy=0;entryX=0.5;entryY=1;entryDx=0;entryDy=0;" edge="1" parent="1" source="m4PSTnk_5FGhUhusHhhS-109" target="m4PSTnk_5FGhUhusHhhS-112">
          <mxGeometry relative="1" as="geometry" />
        </mxCell>
        <mxCell id="m4PSTnk_5FGhUhusHhhS-109" value="WAF" style="rounded=0;whiteSpace=wrap;html=1;" vertex="1" parent="1">
          <mxGeometry x="600" y="627" width="90" height="30" as="geometry" />
        </mxCell>
        <mxCell id="m4PSTnk_5FGhUhusHhhS-110" style="edgeStyle=orthogonalEdgeStyle;rounded=0;orthogonalLoop=1;jettySize=auto;html=1;exitX=0.5;exitY=1;exitDx=0;exitDy=0;entryX=0.5;entryY=0;entryDx=0;entryDy=0;" edge="1" parent="1" source="m4PSTnk_5FGhUhusHhhS-111" target="m4PSTnk_5FGhUhusHhhS-112">
          <mxGeometry relative="1" as="geometry" />
        </mxCell>
        <mxCell id="m4PSTnk_5FGhUhusHhhS-111" value="Agent" style="rounded=0;whiteSpace=wrap;html=1;" vertex="1" parent="1">
          <mxGeometry x="600" y="524" width="90" height="30" as="geometry" />
        </mxCell>
        <mxCell id="m4PSTnk_5FGhUhusHhhS-112" value="Redis" style="rounded=0;whiteSpace=wrap;html=1;" vertex="1" parent="1">
          <mxGeometry x="600" y="574" width="90" height="30" as="geometry" />
        </mxCell>
        <mxCell id="m4PSTnk_5FGhUhusHhhS-113" value="&lt;font style=&quot;font-size: 14px&quot;&gt;&lt;b&gt;WAF3&lt;/b&gt;&lt;/font&gt;" style="text;html=1;align=center;verticalAlign=middle;resizable=0;points=[];autosize=1;" vertex="1" parent="1">
          <mxGeometry x="580" y="504" width="50" height="20" as="geometry" />
        </mxCell>
      </root>
    </mxGraphModel>
  </diagram>
</mxfile>
